<svg width="601" height="558" viewBox="0 0 601 558" fill="none" xmlns="http://www.w3.org/2000/svg">
<ellipse cx="330.63" cy="279.011" rx="263.234" ry="264.331" fill="#C4C4C4" fill-opacity="0.09"/>
<g filter="url(#filter0_d_6_212)">
<path d="M329.371 533.877C465.493 532.897 575.03 418.11 574.029 277.495C573.027 136.879 461.866 23.6821 325.744 24.6626C189.622 25.643 80.0851 140.429 81.0868 281.045C82.0884 421.661 193.249 534.858 329.371 533.877Z" fill="#FAEFE9"/>
</g>
<g clip-path="url(#clip0_6_212)">
<path d="M301.083 354.435C319.461 354.435 334.36 350.895 334.36 346.529C334.36 342.163 319.461 338.624 301.083 338.624C282.704 338.624 267.805 342.163 267.805 346.529C267.805 350.895 282.704 354.435 301.083 354.435Z" fill="#A3A1A0"/>
<path d="M301.083 346.529L282.39 409.403" stroke="#A3A1A0" stroke-width="4" stroke-miterlimit="10" stroke-linecap="round"/>
<path d="M301.083 346.529L319.775 409.403" stroke="#A3A1A0" stroke-width="4" stroke-miterlimit="10" stroke-linecap="round"/>
<path d="M288.528 388.759L309.366 374.399" stroke="#A3A1A0" stroke-width="2" stroke-miterlimit="10" stroke-linecap="round"/>
<path d="M292.715 374.399L313.558 388.759" stroke="#A3A1A0" stroke-width="2" stroke-miterlimit="10" stroke-linecap="round"/>
<path d="M333.831 278.47C333.747 281.259 333.784 291.023 333.358 295.199" stroke="#1F161E" stroke-miterlimit="10" stroke-linecap="round"/>
<path d="M226.777 154.99C226.777 153.009 225.282 151.403 223.439 151.403C221.596 151.403 220.101 153.009 220.101 154.99V167.372C220.101 169.353 221.596 170.959 223.439 170.959C225.282 170.959 226.777 169.353 226.777 167.372V154.99Z" fill="#A3A1A0"/>
<path d="M223.439 191.773C227.137 191.773 230.136 188.551 230.136 184.576C230.136 180.602 227.137 177.379 223.439 177.379C219.741 177.379 216.742 180.602 216.742 184.576C216.742 188.551 219.741 191.773 223.439 191.773Z" fill="#FBDC8E"/>
<path d="M447.317 270.05H450.48C450.813 270.048 451.131 269.905 451.366 269.653C451.601 269.4 451.734 269.058 451.735 268.701V247.801C451.736 247.624 451.703 247.449 451.64 247.285C451.577 247.122 451.483 246.974 451.366 246.849L447.369 242.554C447.253 242.428 447.115 242.329 446.963 242.261C446.811 242.192 446.648 242.157 446.483 242.157H434.677C434.345 242.159 434.027 242.301 433.792 242.554C433.556 242.807 433.424 243.149 433.422 243.506V245.523" fill="#FBDC8E"/>
<path d="M172.434 319.918C182.453 321.958 180.665 386.22 161.435 382.333C143.275 378.626 160.211 317.419 172.434 319.918Z" fill="#A3A1A0"/>
<path d="M128.447 327.851C136.42 323.001 169.792 368.131 154.527 377.414C140.106 386.22 118.74 333.768 128.447 327.851Z" fill="#FBDC8E"/>
<path d="M169.075 413.376H148.943C148.132 413.375 147.35 413.054 146.746 412.472C146.142 411.891 145.758 411.091 145.669 410.225L143.127 385.699C143.072 385.201 143.116 384.697 143.255 384.219C143.394 383.741 143.626 383.3 143.936 382.925C144.245 382.55 144.625 382.25 145.05 382.045C145.475 381.839 145.935 381.732 146.402 381.732H171.511C171.974 381.732 172.431 381.837 172.853 382.04C173.275 382.242 173.653 382.538 173.962 382.908C174.271 383.278 174.504 383.714 174.646 384.186C174.788 384.659 174.835 385.159 174.786 385.653L172.355 410.179C172.274 411.054 171.894 411.866 171.288 412.456C170.682 413.047 169.893 413.374 169.075 413.376Z" fill="#969696"/>
<path d="M178.092 294.893C185.722 297.273 179.874 346.875 165.263 342.308C151.469 338.001 168.806 291.992 178.092 294.893Z" fill="#AB8DE5"/>
<path d="M190.673 334.357C195.946 339.242 174.496 376.609 164.361 367.225C154.791 358.401 184.235 328.418 190.673 334.357Z" fill="#FBDC8E"/>
<path d="M159.062 300.05C170.483 300.05 180.939 378.422 159.062 378.422C138.403 378.422 145.157 300.05 159.062 300.05Z" fill="#78E5E1"/>
<path d="M179.104 376.428H138.925C137.745 376.428 136.789 377.455 136.789 378.723V382.905C136.789 384.173 137.745 385.2 138.925 385.2H179.104C180.284 385.2 181.24 384.173 181.24 382.905V378.723C181.24 377.455 180.284 376.428 179.104 376.428Z" fill="#D8D8D8"/>
<path d="M442.001 245.523H430.401C430.215 245.523 430.031 245.563 429.859 245.64C429.687 245.716 429.531 245.829 429.4 245.97C429.269 246.112 429.165 246.28 429.094 246.465C429.023 246.65 428.987 246.848 428.988 247.048V271.869C428.988 272.272 429.137 272.659 429.402 272.944C429.666 273.23 430.026 273.391 430.401 273.393H445.898C446.273 273.391 446.633 273.23 446.898 272.944C447.163 272.659 447.311 272.272 447.311 271.869V251.241C447.312 251.042 447.276 250.844 447.205 250.659C447.135 250.474 447.031 250.306 446.9 250.165L442.998 245.971C442.734 245.686 442.376 245.525 442.001 245.523Z" fill="#D8D8D8"/>
<path d="M447.317 250.646H443.378C443.168 250.646 442.967 250.557 442.818 250.397C442.67 250.238 442.587 250.022 442.587 249.796V245.523" fill="#969696"/>
<path d="M451.751 247.286H447.812C447.601 247.284 447.4 247.194 447.251 247.034C447.102 246.873 447.017 246.657 447.016 246.43V242.157" fill="#64CCC4"/>
<path d="M429.004 217.149H401.817C400.934 217.149 400.219 217.918 400.219 218.866V228.409C400.219 229.358 400.934 230.127 401.817 230.127H429.004C429.886 230.127 430.601 229.358 430.601 228.409V218.866C430.601 217.918 429.886 217.149 429.004 217.149Z" fill="#78E5E1"/>
<path d="M415.405 239.023L419.064 227.112H411.745L415.405 239.023Z" fill="#78E5E1"/>
<path d="M408.155 220.606L405.086 226.313H411.218L408.155 220.606Z" fill="white"/>
<path d="M422.66 226.313L425.729 220.606H419.592L422.66 226.313Z" fill="white"/>
<path d="M415.405 225.939C416.677 225.939 417.709 224.83 417.709 223.462C417.709 222.095 416.677 220.986 415.405 220.986C414.132 220.986 413.101 222.095 413.101 223.462C413.101 224.83 414.132 225.939 415.405 225.939Z" fill="white"/>
<path d="M413.037 189.648H395.194C394.422 189.648 393.796 190.321 393.796 191.15V202.744C393.796 203.574 394.422 204.246 395.194 204.246H413.037C413.809 204.246 414.435 203.574 414.435 202.744V191.15C414.435 190.321 413.809 189.648 413.037 189.648Z" fill="#D8D8D8"/>
<path d="M394.445 190.107L404.116 196.947" stroke="#969696" stroke-width="0.82" stroke-linecap="round" stroke-linejoin="round"/>
<path d="M414.435 189.648L404.116 196.947" stroke="#969696" stroke-width="0.82" stroke-linecap="round" stroke-linejoin="round"/>
<path d="M414.435 192.822C416.065 192.822 417.387 191.401 417.387 189.648C417.387 187.896 416.065 186.475 414.435 186.475C412.804 186.475 411.482 187.896 411.482 189.648C411.482 191.401 412.804 192.822 414.435 192.822Z" fill="#FBDC8E"/>
<path d="M416.179 188.517V193.735H415.52V189.34L414.19 189.825V189.23L416.076 188.517H416.179Z" fill="white"/>
<path d="M518.005 198.551H441.021C440.663 198.551 440.372 198.863 440.372 199.248V199.679C440.372 200.063 440.663 200.376 441.021 200.376H518.005C518.364 200.376 518.654 200.063 518.654 199.679V199.248C518.654 198.863 518.364 198.551 518.005 198.551Z" fill="#D8D8D8"/>
<path d="M473.539 162.317H468.862C468.116 162.317 467.512 162.966 467.512 163.768V197.1C467.512 197.901 468.116 198.551 468.862 198.551H473.539C474.284 198.551 474.889 197.901 474.889 197.1V163.768C474.889 162.966 474.284 162.317 473.539 162.317Z" fill="#969696"/>
<path d="M477.457 170.812H476.012C475.391 170.812 474.889 171.352 474.889 172.019V197.344C474.889 198.01 475.391 198.551 476.012 198.551H477.457C478.077 198.551 478.58 198.01 478.58 197.344V172.019C478.58 171.352 478.077 170.812 477.457 170.812Z" fill="#D8D8D8"/>
<path d="M481.185 170.812H479.666C479.066 170.812 478.58 171.334 478.58 171.979V197.383C478.58 198.028 479.066 198.551 479.666 198.551H481.185C481.784 198.551 482.271 198.028 482.271 197.383V171.979C482.271 171.334 481.784 170.812 481.185 170.812Z" fill="#969696"/>
<path d="M483.861 172.797L482.615 173.412C482.033 173.699 481.778 174.439 482.045 175.065L491.846 198.008C492.113 198.634 492.802 198.908 493.384 198.621L494.63 198.006C495.212 197.719 495.468 196.979 495.2 196.353L485.399 173.41C485.132 172.784 484.443 172.51 483.861 172.797Z" fill="#D8D8D8"/>
<path d="M471.198 189.382C472.336 189.382 473.259 188.39 473.259 187.166C473.259 185.942 472.336 184.95 471.198 184.95C470.059 184.95 469.136 185.942 469.136 187.166C469.136 188.39 470.059 189.382 471.198 189.382Z" fill="#D8D8D8"/>
<path d="M473.064 190.708H469.331C469.057 190.708 468.835 190.946 468.835 191.241C468.835 191.535 469.057 191.773 469.331 191.773H473.064C473.338 191.773 473.56 191.535 473.56 191.241C473.56 190.946 473.338 190.708 473.064 190.708Z" fill="#D8D8D8"/>
<path d="M473.064 193.434H469.331C469.057 193.434 468.835 193.672 468.835 193.966C468.835 194.261 469.057 194.499 469.331 194.499H473.064C473.338 194.499 473.56 194.261 473.56 193.966C473.56 193.672 473.338 193.434 473.064 193.434Z" fill="#D8D8D8"/>
<path d="M435.289 248.085H431.556C431.282 248.085 431.06 248.323 431.06 248.617C431.06 248.912 431.282 249.15 431.556 249.15H435.289C435.563 249.15 435.785 248.912 435.785 248.617C435.785 248.323 435.563 248.085 435.289 248.085Z" fill="#969696"/>
<path d="M435.289 250.646H431.556C431.282 250.646 431.06 250.885 431.06 251.179C431.06 251.473 431.282 251.712 431.556 251.712H435.289C435.563 251.712 435.785 251.473 435.785 251.179C435.785 250.885 435.563 250.646 435.289 250.646Z" fill="#969696"/>
<path d="M444.97 255.027H431.34C431.066 255.027 430.844 255.265 430.844 255.559C430.844 255.854 431.066 256.092 431.34 256.092H444.97C445.244 256.092 445.466 255.854 445.466 255.559C445.466 255.265 445.244 255.027 444.97 255.027Z" fill="#969696"/>
<path d="M444.97 257.543H431.34C431.066 257.543 430.844 257.781 430.844 258.075C430.844 258.37 431.066 258.608 431.34 258.608H444.97C445.244 258.608 445.466 258.37 445.466 258.075C445.466 257.781 445.244 257.543 444.97 257.543Z" fill="#969696"/>
<path d="M444.97 260.059H431.34C431.066 260.059 430.844 260.297 430.844 260.592C430.844 260.886 431.066 261.124 431.34 261.124H444.97C445.244 261.124 445.466 260.886 445.466 260.592C445.466 260.297 445.244 260.059 444.97 260.059Z" fill="#969696"/>
<path d="M477.119 174.999C477.119 174.771 476.947 174.586 476.734 174.586C476.522 174.586 476.349 174.771 476.349 174.999V194.357C476.349 194.586 476.522 194.771 476.734 194.771C476.947 194.771 477.119 194.586 477.119 194.357V174.999Z" fill="#969696"/>
<path d="M460.926 199.463H457.625C456.9 199.463 456.312 200.095 456.312 200.874C456.312 201.654 456.9 202.285 457.625 202.285H460.926C461.651 202.285 462.239 201.654 462.239 200.874C462.239 200.095 461.651 199.463 460.926 199.463Z" fill="#D8D8D8"/>
<path d="M501.401 199.463H498.1C497.375 199.463 496.787 200.095 496.787 200.874C496.787 201.654 497.375 202.285 498.1 202.285H501.401C502.126 202.285 502.714 201.654 502.714 200.874C502.714 200.095 502.126 199.463 501.401 199.463Z" fill="#D8D8D8"/>
<path d="M376.807 202.223H357.556C354.061 202.223 351.228 205.268 351.228 209.023V219.116C351.228 222.871 354.061 225.916 357.556 225.916H376.807C380.302 225.916 383.135 222.871 383.135 219.116V209.023C383.135 205.268 380.302 202.223 376.807 202.223Z" fill="#D8D8D8"/>
<path d="M362.628 206.037H357.83V222.102H362.628V206.037Z" fill="#AB8DE5"/>
<path d="M369.583 216.724H364.785V222.108H369.583V216.724Z" fill="#AB8DE5"/>
<path d="M376.533 212.191H371.734V222.102H376.533V212.191Z" fill="#AB8DE5"/>
<path d="M223.439 162.878C220.787 162.877 218.161 163.438 215.711 164.528C213.261 165.618 211.034 167.216 209.159 169.231C207.284 171.246 205.796 173.639 204.781 176.271C203.766 178.904 203.244 181.726 203.244 184.576H243.634C243.634 181.726 243.112 178.904 242.097 176.271C241.082 173.639 239.594 171.246 237.719 169.231C235.844 167.216 233.617 165.618 231.167 164.528C228.717 163.438 226.091 162.877 223.439 162.878Z" fill="#AB8DE5"/>
<path d="M223.439 155.534V76.8098" stroke="#A3A1A0" stroke-width="2" stroke-linecap="round" stroke-linejoin="round"/>
<path d="M381.837 401.906C381.837 403.249 381.105 411.721 382.565 412.503C384.026 413.285 400.082 413.761 400.809 412.973C401.537 412.186 401.975 410.542 401.337 410.072C400.699 409.601 394.482 408.27 393.638 407.641C392.795 407.012 391.629 403.674 392.056 401.906" fill="#1F161E"/>
<path d="M333.833 291.159L342.871 287.673C342.48 269.953 338.626 230.359 333.153 224.471C331.866 223.094 306.419 220.691 301.879 220.691C274.787 220.691 266.751 224.012 264.71 226.211C258.383 233.011 256.411 264.519 256.411 275.552C256.411 286.585 285.412 292.309 285.412 292.309L319.406 294.819C319.406 294.819 326.862 295.647 333.311 296.055C333.453 293.93 333.833 291.159 333.833 291.159Z" fill="#78E5E1"/>
<path d="M360.762 301.433C363.235 300.645 387.828 296.332 393.185 301.999C398.542 307.666 415.405 388.912 415.405 390.782H401.827L383.498 348.388" fill="#1F161E"/>
<path d="M271.222 294.207C270.605 297.522 266.898 301.081 266.898 319.141C266.898 344.115 285.934 344.642 292.767 344.642C314.059 344.642 348.507 337.842 350.833 336.595C352.378 339.372 380.814 401.764 380.946 403.158H394.039C394.039 403.158 385.924 309.814 371.281 299.228C366.525 295.828 282.142 292.19 271.222 294.207Z" fill="#55B79D"/>
<path d="M347.89 275.949C344.452 275.949 341.616 276.827 333.833 278.47L333.427 294.474C340.809 291.278 342.523 286.835 344.663 286.835C350.01 286.835 352.805 289.799 355.963 289.799C358.167 289.799 362.133 287.94 362.133 285.412C362.133 280.12 352.151 275.949 347.89 275.949Z" fill="#F8CDBA"/>
<path d="M402.597 389.66C402.597 391.009 401.864 399.475 403.325 400.262C404.785 401.05 420.841 401.515 421.569 400.733C422.297 399.951 422.734 398.302 422.096 397.831C421.458 397.361 415.241 396.024 414.398 395.395C413.554 394.766 412.389 391.428 412.816 389.66" fill="#1F161E"/>
<path d="M306.672 224.46C306.672 226.596 295.13 226.658 295.13 224.46V207.085H306.672V224.46Z" fill="#F8CDBA"/>
<path d="M302.912 212.814C301.858 212.814 295.13 216.01 295.13 217.795V208.366C296.806 208.366 302.912 212.814 302.912 212.814Z" fill="#1F161E"/>
<path d="M305.143 213.551C312.86 213.551 319.116 206.828 319.116 198.534C319.116 190.24 312.86 183.517 305.143 183.517C297.426 183.517 291.17 190.24 291.17 198.534C291.17 206.828 297.426 213.551 305.143 213.551Z" fill="#F8CDBA"/>
<path d="M319.564 186.747C317.835 189.699 314.218 191.054 310.3 191.054C306.962 191.054 302.1 190.011 298.641 192.13C296.769 193.264 294.623 195.842 294.191 201.005C294.191 201.889 293.258 205.317 293.258 206.422C293.258 207.176 292.467 207.669 291.148 207.669C290.468 207.669 289.124 206.484 289.124 204.677C289.124 202.586 289.899 201.843 289.899 200.07C289.899 198.296 287.879 196.59 287.879 191.66C287.879 184.559 292.098 180.185 295.082 180.185C297.803 180.185 298.657 180.865 299 181.154C299 174.699 306.909 171.752 310.047 171.752C313.632 171.752 315.32 173.333 315.32 175.345C315.32 178.552 313.896 181.278 313.173 181.89C314.809 180.309 316.932 179.439 319.132 179.448C323.239 179.448 324.621 182.349 324.621 184.333C324.621 188.645 319.807 192.64 318.014 192.64C317.563 191.615 317.034 190.631 316.432 189.699" fill="#1F161E"/>
<path d="M294.623 203.719C296.269 203.719 297.603 202.286 297.603 200.517C297.603 198.749 296.269 197.315 294.623 197.315C292.978 197.315 291.644 198.749 291.644 200.517C291.644 202.286 292.978 203.719 294.623 203.719Z" fill="#F8CDBA"/>
<path d="M319.253 201.288C320.529 201.288 321.563 200.709 321.563 199.996C321.563 199.282 320.529 198.704 319.253 198.704C317.978 198.704 316.944 199.282 316.944 199.996C316.944 200.709 317.978 201.288 319.253 201.288Z" fill="#FA9E9F"/>
<path d="M304.726 201.288C306.002 201.288 307.036 200.709 307.036 199.996C307.036 199.282 306.002 198.704 304.726 198.704C303.451 198.704 302.417 199.282 302.417 199.996C302.417 200.709 303.451 201.288 304.726 201.288Z" fill="#FA9E9F"/>
<path d="M313.611 197.315C314.044 197.978 316.248 200.761 313.922 201.889" stroke="#1F161E" stroke-miterlimit="10" stroke-linecap="round"/>
<path d="M309.266 205.136C308.57 205.136 307.5 204.206 306.936 203.373" stroke="#1F161E" stroke-miterlimit="10" stroke-linecap="round"/>
<path d="M327.69 245.467C328.744 247.875 333.833 271.109 333.833 278.47" stroke="#1F161E" stroke-miterlimit="10" stroke-linecap="round"/>
<path d="M256.411 273.682C256.411 299.801 256.637 307.377 266.392 307.377C288.876 307.377 322.865 287.543 328.924 287.543C334.276 287.543 337.07 290.513 340.229 290.513C342.428 290.513 346.393 288.648 346.393 286.126C346.393 280.828 336.411 276.657 332.156 276.657C322.575 276.657 284.341 286.585 283.408 286.585C282.475 286.585 280.903 286.149 280.903 284.46C280.903 281.395 282.77 274.311 283.012 273.693L256.411 273.682Z" fill="#F8CDBA"/>
<path d="M288.628 250.901C287.985 252.89 282.97 273.444 282.39 275.949" stroke="#1F161E" stroke-miterlimit="10" stroke-linecap="round"/>
<path d="M479.001 409.877C479.38 411.427 480.856 412.353 482.298 411.946C483.74 411.538 484.602 409.952 484.223 408.402L457.226 298.044C456.847 296.494 455.37 295.568 453.928 295.976C452.486 296.383 451.625 297.97 452.004 299.52L479.001 409.877Z" fill="#969696"/>
<path d="M451.736 299.524C452.115 297.975 451.253 296.388 449.811 295.981C448.369 295.573 446.893 296.499 446.514 298.049L419.517 408.406C419.138 409.956 420 411.543 421.442 411.95C422.884 412.358 424.36 411.432 424.739 409.882L451.736 299.524Z" fill="#969696"/>
<path d="M414.483 299.524C414.862 297.974 414.001 296.387 412.559 295.98C411.117 295.572 409.64 296.498 409.261 298.048L382.265 408.406C381.886 409.956 382.747 411.542 384.189 411.95C385.631 412.357 387.108 411.431 387.487 409.881L414.483 299.524Z" fill="#D8D8D8"/>
<path d="M441.279 407.84C441.651 409.395 443.126 410.33 444.572 409.929C446.019 409.529 446.889 407.944 446.516 406.39L419.972 295.705C419.6 294.151 418.125 293.215 416.679 293.616C415.232 294.017 414.362 295.601 414.735 297.156L441.279 407.84Z" fill="#D8D8D8"/>
<path d="M262.401 299.527C262.78 297.977 261.919 296.39 260.477 295.983C259.035 295.575 257.558 296.501 257.179 298.051L230.183 408.409C229.804 409.958 230.665 411.545 232.107 411.952C233.549 412.36 235.026 411.434 235.405 409.884L262.401 299.527Z" fill="#969696"/>
<path d="M289.208 409.884C289.587 411.434 291.063 412.36 292.505 411.953C293.947 411.545 294.809 409.959 294.43 408.409L267.433 298.051C267.054 296.502 265.577 295.576 264.135 295.983C262.693 296.39 261.832 297.977 262.211 299.527L289.208 409.884Z" fill="#969696"/>
<path d="M468.356 290.53H207.256C205.937 290.53 204.868 291.679 204.868 293.097V296.548C204.868 297.965 205.937 299.115 207.256 299.115H468.356C469.675 299.115 470.744 297.965 470.744 296.548V293.097C470.744 291.679 469.675 290.53 468.356 290.53Z" fill="#D8D8D8"/>
<path d="M223.817 299.528C224.196 297.978 223.334 296.392 221.892 295.984C220.45 295.577 218.974 296.503 218.595 298.053L191.598 408.41C191.219 409.96 192.081 411.547 193.523 411.954C194.965 412.362 196.441 411.436 196.82 409.886L223.817 299.528Z" fill="#D8D8D8"/>
<path d="M250.623 409.885C251.002 411.434 252.478 412.36 253.92 411.953C255.362 411.545 256.224 409.959 255.845 408.409L228.848 298.052C228.469 296.502 226.993 295.576 225.551 295.983C224.109 296.391 223.247 297.977 223.626 299.527L250.623 409.885Z" fill="#D8D8D8"/>
<path d="M400.34 290.53H351.56L360.398 257.866C360.618 257.078 361.071 256.387 361.686 255.898C362.302 255.409 363.049 255.147 363.815 255.151H405.207C405.751 255.142 406.289 255.269 406.779 255.523C407.269 255.777 407.697 256.15 408.028 256.613C408.36 257.076 408.587 257.615 408.69 258.189C408.794 258.763 408.771 259.355 408.624 259.917L400.34 290.53Z" fill="#A3A1A0"/>
<path d="M381.938 276.045C383.586 276.045 384.922 274.609 384.922 272.838C384.922 271.066 383.586 269.63 381.938 269.63C380.289 269.63 378.953 271.066 378.953 272.838C378.953 274.609 380.289 276.045 381.938 276.045Z" fill="white"/>
<path d="M357.355 288.234H323.129V290.53H357.355V288.234Z" fill="#A3A1A0"/>
</g>
<defs>
<filter id="filter0_d_6_212" x="-4" y="0" width="608.987" height="565.72" filterUnits="userSpaceOnUse" color-interpolation-filters="sRGB">
<feFlood flood-opacity="0" result="BackgroundImageFix"/>
<feColorMatrix in="SourceAlpha" type="matrix" values="0 0 0 0 0 0 0 0 0 0 0 0 0 0 0 0 0 0 127 0" result="hardAlpha"/>
<feOffset dy="4"/>
<feGaussianBlur stdDeviation="2"/>
<feComposite in2="hardAlpha" operator="out"/>
<feColorMatrix type="matrix" values="0 0 0 0 0 0 0 0 0 0 0 0 0 0 0 0 0 0 0.25 0"/>
<feBlend mode="normal" in2="BackgroundImageFix" result="effect1_dropShadow_6_212"/>
<feBlend mode="normal" in="SourceGraphic" in2="effect1_dropShadow_6_212" result="shape"/>
</filter>
<clipPath id="clip0_6_212">
<rect width="392.653" height="337.132" fill="white" transform="translate(126.001 76.2431)"/>
</clipPath>
</defs>
</svg>
