<svg width="120" height="33" viewBox="0 0 120 33" fill="none" xmlns="http://www.w3.org/2000/svg">
<path d="M9.72 24.24C7.96 24.24 6.448 23.888 5.184 23.184C3.936 22.464 2.976 21.456 2.304 20.16C1.632 18.848 1.296 17.304 1.296 15.528C1.296 13.752 1.632 12.216 2.304 10.92C2.976 9.624 3.936 8.624 5.184 7.92C6.448 7.2 7.96 6.84 9.72 6.84C10.6 6.84 11.464 6.952 12.312 7.176C13.16 7.4 13.904 7.72 14.544 8.136C14.96 8.408 15.208 8.736 15.288 9.12C15.368 9.488 15.32 9.832 15.144 10.152C14.968 10.456 14.704 10.664 14.352 10.776C14 10.872 13.608 10.776 13.176 10.488C12.68 10.168 12.144 9.936 11.568 9.792C10.992 9.648 10.408 9.576 9.816 9.576C8.104 9.576 6.8 10.096 5.904 11.136C5.008 12.16 4.56 13.624 4.56 15.528C4.56 17.432 5.008 18.904 5.904 19.944C6.8 20.984 8.104 21.504 9.816 21.504C10.424 21.504 11.024 21.432 11.616 21.288C12.208 21.128 12.768 20.888 13.296 20.568C13.728 20.296 14.112 20.208 14.448 20.304C14.784 20.4 15.032 20.6 15.192 20.904C15.368 21.192 15.424 21.512 15.36 21.864C15.296 22.216 15.08 22.528 14.712 22.8C14.072 23.264 13.304 23.624 12.408 23.88C11.528 24.12 10.632 24.24 9.72 24.24ZM22.3808 24.24C21.1648 24.24 20.1088 23.992 19.2128 23.496C18.3168 23 17.6208 22.296 17.1248 21.384C16.6288 20.456 16.3808 19.368 16.3808 18.12C16.3808 16.872 16.6288 15.792 17.1248 14.88C17.6208 13.968 18.3168 13.264 19.2128 12.768C20.1088 12.272 21.1648 12.024 22.3808 12.024C23.5968 12.024 24.6528 12.272 25.5488 12.768C26.4448 13.264 27.1408 13.968 27.6368 14.88C28.1328 15.792 28.3808 16.872 28.3808 18.12C28.3808 19.368 28.1328 20.456 27.6368 21.384C27.1408 22.296 26.4448 23 25.5488 23.496C24.6528 23.992 23.5968 24.24 22.3808 24.24ZM22.3808 21.96C23.2768 21.96 23.9968 21.64 24.5408 21C25.0848 20.344 25.3568 19.384 25.3568 18.12C25.3568 16.84 25.0848 15.888 24.5408 15.264C23.9968 14.624 23.2768 14.304 22.3808 14.304C21.4848 14.304 20.7648 14.624 20.2208 15.264C19.6768 15.888 19.4048 16.84 19.4048 18.12C19.4048 19.384 19.6768 20.344 20.2208 21C20.7648 21.64 21.4848 21.96 22.3808 21.96ZM35.3689 24.24C34.3449 24.24 33.4409 23.992 32.6569 23.496C31.8889 23 31.2889 22.296 30.8569 21.384C30.4249 20.456 30.2089 19.368 30.2089 18.12C30.2089 16.856 30.4249 15.776 30.8569 14.88C31.2889 13.968 31.8889 13.264 32.6569 12.768C33.4409 12.272 34.3449 12.024 35.3689 12.024C36.2009 12.024 36.9529 12.208 37.6249 12.576C38.2969 12.944 38.8009 13.432 39.1369 14.04V8.4C39.1369 7.392 39.6329 6.888 40.6249 6.888C41.6329 6.888 42.1369 7.392 42.1369 8.4V22.656C42.1369 23.68 41.6409 24.192 40.6489 24.192C39.6569 24.192 39.1609 23.68 39.1609 22.656V22.152C38.8249 22.792 38.3209 23.304 37.6489 23.688C36.9769 24.056 36.2169 24.24 35.3689 24.24ZM36.2089 21.96C37.1049 21.96 37.8249 21.64 38.3689 21C38.9129 20.344 39.1849 19.384 39.1849 18.12C39.1849 16.84 38.9129 15.888 38.3689 15.264C37.8249 14.624 37.1049 14.304 36.2089 14.304C35.3129 14.304 34.5929 14.624 34.0489 15.264C33.5049 15.888 33.2329 16.84 33.2329 18.12C33.2329 19.384 33.5049 20.344 34.0489 21C34.5929 21.64 35.3129 21.96 36.2089 21.96ZM51.0315 24.24C49.7035 24.24 48.5595 23.992 47.5995 23.496C46.6395 23 45.8955 22.296 45.3675 21.384C44.8555 20.472 44.5995 19.392 44.5995 18.144C44.5995 16.928 44.8475 15.864 45.3435 14.952C45.8555 14.04 46.5515 13.328 47.4315 12.816C48.3275 12.288 49.3435 12.024 50.4795 12.024C52.1435 12.024 53.4555 12.552 54.4155 13.608C55.3915 14.664 55.8795 16.104 55.8795 17.928C55.8795 18.52 55.4955 18.816 54.7275 18.816H47.4795C47.7035 20.912 48.9035 21.96 51.0795 21.96C51.4955 21.96 51.9595 21.912 52.4715 21.816C52.9995 21.704 53.4955 21.52 53.9595 21.264C54.3755 21.024 54.7275 20.952 55.0155 21.048C55.3035 21.128 55.5035 21.296 55.6155 21.552C55.7435 21.808 55.7595 22.096 55.6635 22.416C55.5835 22.72 55.3595 22.984 54.9915 23.208C54.4315 23.56 53.7835 23.824 53.0475 24C52.3275 24.16 51.6555 24.24 51.0315 24.24ZM50.5995 14.064C49.7195 14.064 49.0075 14.336 48.4635 14.88C47.9195 15.424 47.5915 16.16 47.4795 17.088H53.3835C53.3195 16.112 53.0475 15.368 52.5675 14.856C52.1035 14.328 51.4475 14.064 50.5995 14.064ZM60.0793 24.192C59.0553 24.192 58.5433 23.664 58.5433 22.608V8.448C58.5433 7.408 59.0553 6.888 60.0793 6.888C61.1033 6.888 61.6153 7.408 61.6153 8.448V14.568H61.6633L68.5513 7.656C68.8073 7.4 69.0633 7.208 69.3193 7.08C69.5753 6.952 69.8633 6.888 70.1833 6.888C70.6473 6.888 70.9753 7.008 71.1673 7.248C71.3753 7.488 71.4553 7.768 71.4073 8.088C71.3753 8.408 71.2233 8.704 70.9513 8.976L64.6393 15.216L71.2873 21.96C71.6233 22.28 71.7993 22.616 71.8153 22.968C71.8313 23.32 71.7193 23.616 71.4793 23.856C71.2553 24.08 70.9193 24.192 70.4713 24.192C70.0873 24.192 69.7753 24.112 69.5353 23.952C69.3113 23.792 69.0473 23.56 68.7433 23.256L61.6633 16.176H61.6153V22.608C61.6153 23.664 61.1033 24.192 60.0793 24.192ZM78.2299 24.24C75.3499 24.24 73.9099 22.624 73.9099 19.392V13.584C73.9099 12.576 74.4059 12.072 75.3979 12.072C76.4059 12.072 76.9099 12.576 76.9099 13.584V19.44C76.9099 20.272 77.0779 20.888 77.4139 21.288C77.7499 21.688 78.2859 21.888 79.0219 21.888C79.8219 21.888 80.4779 21.616 80.9899 21.072C81.5019 20.512 81.7579 19.776 81.7579 18.864V13.584C81.7579 12.576 82.2539 12.072 83.2459 12.072C84.2539 12.072 84.7579 12.576 84.7579 13.584V22.656C84.7579 23.68 84.2699 24.192 83.2939 24.192C82.3179 24.192 81.8299 23.68 81.8299 22.656V22.248C81.0459 23.576 79.8459 24.24 78.2299 24.24ZM89.3203 24.12C88.7763 24.12 88.3363 23.952 88.0003 23.616C87.6803 23.28 87.5203 22.848 87.5203 22.32C87.5203 21.808 87.6803 21.392 88.0003 21.072C88.3363 20.736 88.7763 20.568 89.3203 20.568C89.8803 20.568 90.3123 20.736 90.6163 21.072C90.9363 21.392 91.0963 21.808 91.0963 22.32C91.0963 22.848 90.9363 23.28 90.6163 23.616C90.3123 23.952 89.8803 24.12 89.3203 24.12Z" fill="#1F161E"/>
<path d="M97.384 24.192C96.36 24.192 95.848 23.664 95.848 22.608V8.472C95.848 7.416 96.36 6.888 97.384 6.888C98.408 6.888 98.92 7.416 98.92 8.472V22.608C98.92 23.664 98.408 24.192 97.384 24.192ZM104.253 24C103.165 24 102.621 23.456 102.621 22.368V8.712C102.621 7.624 103.165 7.08 104.253 7.08H108.909C111.741 7.08 113.925 7.808 115.461 9.264C117.013 10.72 117.789 12.808 117.789 15.528C117.789 18.232 117.013 20.32 115.461 21.792C113.925 23.264 111.741 24 108.909 24H104.253ZM105.693 21.456H108.717C112.621 21.456 114.573 19.48 114.573 15.528C114.573 11.592 112.621 9.624 108.717 9.624H105.693V21.456Z" fill="#FF0000"/>
</svg>
